<svg width="59" height="58" viewBox="0 0 59 58" fill="none" xmlns="http://www.w3.org/2000/svg">
<path d="M58.0909 29.1601C58.0935 23.7393 56.5314 18.4313 53.5896 13.8648C50.6479 9.29835 46.4497 5.66468 41.4923 3.39419C36.535 1.12369 31.0261 0.311486 25.6182 1.0538C20.2103 1.7961 15.1299 4.06181 10.9788 7.58257C6.82775 11.1033 3.77981 15.7316 2.19604 20.9193C0.61228 26.107 0.559043 31.6367 2.04262 36.8535C3.52619 42.0703 6.48447 46.7556 10.567 50.3545C14.6495 53.9535 19.6853 56.3152 25.0779 57.1601V37.3601H17.8268V29.1601H25.0779V22.9101C25.0779 15.8101 29.338 11.9101 35.864 11.9101C38.0034 11.9399 40.1376 12.1271 42.2491 12.4701V19.4701H38.694C35.149 19.4701 34.0412 21.6601 34.0412 23.9001V29.2201H41.957L40.6981 37.4201H34.0412V57.2301C40.761 56.1647 46.8767 52.7512 51.2862 47.6047C55.6956 42.4581 58.1088 35.917 58.0909 29.1601Z" fill="#326452"/>
<path d="M40.708 37.3601L41.9669 29.1601H34.0511V23.8401C34.0511 21.6001 35.1589 19.4101 38.7039 19.4101H42.2993V12.4101C40.1878 12.0671 38.0536 11.8799 35.9142 11.8501C29.3882 11.8501 25.1281 15.7801 25.1281 22.8501V29.1001H17.877V37.3001H25.1281V57.1101C28.0839 57.5768 31.0953 57.5768 34.0511 57.1101V37.3601H40.708Z" fill="white"/>
</svg>
