<svg width="58" height="58" viewBox="0 0 58 58" fill="none" xmlns="http://www.w3.org/2000/svg">
<path d="M28.73 57.5198C44.5041 57.5198 57.2915 44.8226 57.2915 29.1598C57.2915 13.497 44.5041 0.799805 28.73 0.799805C12.9559 0.799805 0.168457 13.497 0.168457 29.1598C0.168457 44.8226 12.9559 57.5198 28.73 57.5198Z" fill="#326452"/>
<path d="M37.5922 18.4302C37.2061 18.44 36.8314 18.5627 36.5152 18.7828C36.1989 19.003 35.9551 19.3109 35.8141 19.6679C35.6732 20.025 35.6414 20.4154 35.7228 20.7903C35.8042 21.1653 35.995 21.508 36.2716 21.7758C36.5481 22.0435 36.8981 22.2243 37.2776 22.2956C37.6571 22.3668 38.0493 22.3254 38.4052 22.1765C38.7612 22.0275 39.0649 21.7777 39.2786 21.4582C39.4922 21.1387 39.6063 20.7637 39.6064 20.3802C39.5933 19.8585 39.3753 19.3625 38.999 18.9982C38.6226 18.6338 38.1178 18.43 37.5922 18.4302Z" fill="white"/>
<path d="M28.8605 20.9302C27.2292 20.9302 25.6345 21.4105 24.2781 22.3105C22.9217 23.2104 21.8645 24.4895 21.2402 25.986C20.6159 27.4825 20.4525 29.1293 20.7708 30.718C21.0891 32.3067 21.8746 33.766 23.0282 34.9114C24.1817 36.0568 25.6514 36.8368 27.2514 37.1528C28.8514 37.4688 30.5098 37.3067 32.017 36.6868C33.5241 36.0669 34.8124 35.0171 35.7187 33.6703C36.625 32.3234 37.1087 30.74 37.1087 29.1202C37.1061 26.9489 36.2362 24.8673 34.6899 23.3319C33.1437 21.7966 31.0473 20.9328 28.8605 20.9302ZM28.8605 34.3702C27.8148 34.3702 26.7926 34.0623 25.9231 33.4854C25.0536 32.9085 24.3758 32.0886 23.9757 31.1293C23.5755 30.17 23.4708 29.1143 23.6748 28.0959C23.8788 27.0775 24.3824 26.1421 25.1218 25.4079C25.8613 24.6736 26.8034 24.1736 27.829 23.9711C28.8547 23.7685 29.9178 23.8724 30.8839 24.2698C31.85 24.6672 32.6758 25.3401 33.2568 26.2034C33.8378 27.0668 34.1478 28.0818 34.1478 29.1202C34.1478 30.5126 33.5908 31.8479 32.5992 32.8325C31.6076 33.8171 30.2628 34.3702 28.8605 34.3702Z" fill="white"/>
<path d="M35.4071 45.75H22.0427C19.3717 45.75 16.8101 44.6964 14.9214 42.821C13.0328 40.9457 11.9717 38.4021 11.9717 35.75V22.48C11.9717 19.8278 13.0328 17.2843 14.9214 15.4089C16.8101 13.5335 19.3717 12.48 22.0427 12.48H35.4071C38.0781 12.48 40.6397 13.5335 42.5284 15.4089C44.4171 17.2843 45.4781 19.8278 45.4781 22.48V35.76C45.4755 38.4104 44.4132 40.9514 42.5248 42.8246C40.6364 44.6978 38.0763 45.75 35.4071 45.75ZM22.0427 15.63C20.2122 15.63 18.4564 16.3513 17.1611 17.6357C15.8657 18.92 15.1367 20.6623 15.134 22.48V35.76C15.1367 37.5786 15.8654 39.3219 17.1605 40.6078C18.4555 41.8937 20.2112 42.6173 22.0427 42.62H35.4071C36.3143 42.62 37.2127 42.4425 38.0509 42.0978C38.8891 41.753 39.6508 41.2477 40.2923 40.6107C40.9338 39.9737 41.4427 39.2175 41.7899 38.3852C42.1371 37.5529 42.3158 36.6608 42.3158 35.76V22.48C42.3131 20.6623 41.5841 18.92 40.2887 17.6357C38.9934 16.3513 37.2376 15.63 35.4071 15.63H22.0427Z" fill="white"/>
</svg>
