<svg width="40" height="40" viewBox="0 0 59 60" fill="none" xmlns="http://www.w3.org/2000/svg">
<path d="M25.3104 0.0799465C25.6107 0.137924 25.9076 0.211354 26.2003 0.299946C26.6322 0.437412 27.032 0.660592 27.3756 0.956129C27.7193 1.25167 27.9997 1.61349 28.2003 2.01995C28.4963 2.57346 28.6273 3.20027 28.5776 3.82598C28.528 4.45169 28.2999 5.05002 27.9204 5.54995C27.8304 5.66995 27.7504 5.78995 27.6604 5.89995C27.5154 6.08602 27.4347 6.3141 27.4304 6.54995C27.4169 7.0736 27.4638 7.59706 27.5703 8.10995C27.8703 9.70995 28.2903 11.2899 28.7003 12.8699C29.187 14.7433 29.6937 16.6133 30.2203 18.4799C30.6003 19.8499 30.9804 21.2199 31.3904 22.5799C31.4924 22.9208 31.6159 23.2548 31.7604 23.5799C31.8439 23.7963 31.9784 23.9893 32.1525 24.1425C32.3266 24.2957 32.5351 24.4046 32.7604 24.4599L33.5903 24.6799C34.3112 24.8515 34.991 25.1642 35.5903 25.5999C36.3872 26.1922 36.9868 27.0113 37.3104 27.9499C37.489 28.4196 37.6228 28.9051 37.7103 29.3999C37.7523 29.6746 37.8537 29.9368 38.0074 30.1682C38.1612 30.3996 38.3635 30.5948 38.6003 30.7399C39.1365 31.1112 39.7096 31.4262 40.3104 31.6799C41.4004 32.1599 42.5204 32.5599 43.6304 32.9699C46.2604 33.9199 48.8904 34.8499 51.5404 35.7299C52.2604 35.9699 52.9803 36.2099 53.7103 36.3999C53.9063 36.4604 54.113 36.4783 54.3165 36.4525C54.52 36.4266 54.7157 36.3576 54.8904 36.2499C55.1487 36.0914 55.4281 35.9702 55.7203 35.8899C56.1844 35.7541 56.6782 35.7576 57.1404 35.8998C57.6026 36.042 58.0128 36.3167 58.3203 36.6899C58.5736 36.9665 58.7314 37.317 58.7704 37.6899C58.7657 37.7198 58.7657 37.7501 58.7704 37.7799V38.4499C58.7657 38.4798 58.7657 38.5101 58.7704 38.5399C58.7229 38.9073 58.5821 39.2564 58.3616 39.5539C58.141 39.8515 57.848 40.0877 57.5104 40.2399C57.1714 40.3968 56.8038 40.4819 56.4304 40.4899C56.1944 40.5011 55.9632 40.5611 55.7515 40.6661C55.5398 40.7711 55.3521 40.9188 55.2003 41.0999C54.8503 41.4999 54.5003 41.8899 54.2003 42.2999C53.4903 43.1499 52.8104 44.0099 52.1304 44.8799C50.3104 47.1899 48.4904 49.4899 46.7404 51.8799C46.2285 52.5519 45.7513 53.2494 45.3104 53.9699C45.0898 54.3343 44.9436 54.7387 44.8804 55.16C44.8322 55.5347 44.8088 55.9121 44.8104 56.2899C44.8254 56.513 44.8254 56.7369 44.8104 56.9599C44.7347 57.5301 44.4814 58.0619 44.0865 58.4801C43.6917 58.8983 43.1752 59.1816 42.6104 59.2899L42.4004 59.3499H41.5004C41.4236 59.3167 41.343 59.2931 41.2604 59.2799C40.7717 59.1798 40.3146 58.9629 39.928 58.6477C39.5414 58.3325 39.2369 57.9284 39.0404 57.4699C38.9604 57.2899 38.8604 57.1099 38.7704 56.9299C38.6344 56.6652 38.4466 56.4305 38.2181 56.2399C37.9897 56.0492 37.7251 55.9064 37.4403 55.8199C37.0703 55.6999 36.6903 55.6299 36.3203 55.5399C34.7136 55.1599 33.1104 54.7633 31.5104 54.3499L23.2203 52.2499C21.9956 51.9117 20.7539 51.6379 19.5004 51.4299C19.0367 51.3549 18.564 51.3549 18.1003 51.4299C17.5497 51.5418 17.0307 51.774 16.5803 52.1099C16.1016 52.4715 15.5536 52.7309 14.9705 52.8719C14.3873 53.013 13.7814 53.0327 13.1903 52.9299C12.6489 52.8547 12.1291 52.6673 11.6642 52.3797C11.1993 52.0922 10.7995 51.7108 10.4904 51.2599C10.1648 50.8047 9.93489 50.2882 9.81458 49.7417C9.69426 49.1951 9.68609 48.6298 9.79041 48.0799C9.91308 47.2129 10.3254 46.4129 10.9603 45.8099C11.0809 45.6989 11.1776 45.5645 11.2446 45.415C11.3117 45.2654 11.3476 45.1038 11.3503 44.9399C11.356 44.5284 11.3055 44.1179 11.2003 43.7199C10.9983 42.9373 10.7444 42.1689 10.4403 41.4199C9.44031 38.7799 8.44033 36.1599 7.34033 33.5699C7.14453 33.115 6.9243 32.671 6.68042 32.2399C6.55463 32.0172 6.38071 31.8253 6.17139 31.6783C5.96207 31.5312 5.72254 31.4327 5.47034 31.3899L4.68042 31.2599C3.63652 31.0891 2.66416 30.6203 1.88037 29.9099C0.948756 29.105 0.332326 27.9961 0.140381 26.7799C0.137044 26.7079 0.112645 26.6384 0.0703125 26.5799V25.3799C0.113374 25.2998 0.1374 25.2108 0.140381 25.1199C0.223429 24.5627 0.395641 24.0225 0.650391 23.5199C0.982839 22.865 1.4508 22.2881 2.02319 21.8278C2.59559 21.3675 3.25928 21.0342 3.97034 20.8499C4.60556 20.6803 5.26672 20.6295 5.92041 20.6999C6.46041 20.6999 6.9904 20.8699 7.5304 20.9299C7.8176 20.9787 8.11219 20.9608 8.39136 20.8776C8.67053 20.7943 8.92678 20.648 9.14038 20.4499C9.45038 20.1399 9.78038 19.8599 10.1404 19.5499C11.1404 18.5499 12.1404 17.5499 13.1404 16.5499C14.1404 15.5499 15.2103 14.4099 16.2203 13.3299C16.7003 12.8199 17.2204 12.3299 17.6304 11.7799L19.0803 10.1299C19.7003 9.40995 20.3404 8.69995 20.9304 7.95995C21.226 7.61045 21.4903 7.23568 21.7203 6.83995C21.8595 6.56179 21.9118 6.2482 21.8704 5.93995C21.8234 5.60047 21.7464 5.26583 21.6404 4.93995C21.4581 4.37917 21.3934 3.78684 21.4503 3.19995C21.5071 2.53118 21.7606 1.89419 22.1788 1.36923C22.597 0.844262 23.1613 0.454812 23.8004 0.249947C24.0228 0.174754 24.2499 0.114618 24.4803 0.0699463L25.3104 0.0799465ZM26.1504 27.8399H26.4803C26.7205 27.8428 26.9576 27.7847 27.1692 27.671C27.3808 27.5573 27.5601 27.3918 27.6903 27.1899C28.1852 26.4527 28.8376 25.8345 29.6003 25.3799C29.7719 25.2813 29.9244 25.1526 30.0504 24.9999C30.1376 24.9059 30.2011 24.7925 30.2358 24.669C30.2706 24.5456 30.2756 24.4157 30.2504 24.2899C30.2504 24.1599 30.2504 24.0199 30.1804 23.8899C29.9104 22.5199 29.6203 21.1599 29.3303 19.8099C28.8903 17.8099 28.4503 15.8099 27.9603 13.8099C27.6603 12.5799 27.2903 11.3699 26.9603 10.1499C26.7403 9.38995 26.5304 8.62995 26.2704 7.87995C26.2029 7.6816 26.0976 7.49821 25.9603 7.33995C25.8928 7.26427 25.8094 7.20442 25.7161 7.16467C25.6227 7.12491 25.5218 7.10623 25.4204 7.10995C25.2639 7.09985 25.1068 7.09985 24.9503 7.10995C24.6785 7.15004 24.4022 7.15004 24.1304 7.10995C23.86 7.05726 23.5796 7.10339 23.3403 7.23995C23.1905 7.32154 23.0498 7.41874 22.9204 7.52995C22.5004 7.88995 22.1103 8.27995 21.7203 8.67995C21.3303 9.07995 20.7203 9.73995 20.2303 10.2799C19.3803 11.2099 18.5303 12.1399 17.6903 13.0799L16.1804 14.7499L13.8804 17.3099C13.3504 17.9099 12.7904 18.4899 12.2804 19.1099C11.6634 19.8521 11.105 20.6412 10.6104 21.4699C10.3512 21.8481 10.1772 22.278 10.1003 22.7299C10.0616 22.9951 10.0998 23.2658 10.2103 23.5099L10.4403 23.9899C10.5803 24.3099 10.6903 24.6499 10.8303 24.9899C10.9503 25.2774 11.1357 25.5329 11.3718 25.736C11.6079 25.9391 11.8882 26.0843 12.1903 26.1599C13.042 26.3729 13.9075 26.5266 14.7804 26.6199L16.2203 26.7999L17.7904 26.9799L19.0703 27.1199L20.6704 27.2899L21.9503 27.4199L23.6604 27.5999L24.8704 27.7399C25.2941 27.8034 25.7219 27.8369 26.1504 27.8399V27.8399ZM38.5304 54.4299C38.7317 54.4382 38.9332 54.4214 39.1304 54.3799C39.2599 54.3584 39.3799 54.2982 39.4745 54.2071C39.5691 54.1161 39.6339 53.9985 39.6604 53.8699C39.6802 53.734 39.6802 53.5959 39.6604 53.4599C39.6284 53.1402 39.5613 52.825 39.4603 52.5199C39.2803 51.9999 39.0904 51.5199 38.9104 50.9499C38.2971 49.1366 37.6804 47.3266 37.0604 45.5199C36.4404 43.7133 35.8071 41.8733 35.1604 39.9999C34.8239 39.0521 34.4057 38.1353 33.9104 37.2599C33.6226 36.7391 33.2547 36.2666 32.8203 35.8599C32.5177 35.5475 32.127 35.3347 31.7003 35.2499C31.1347 35.1545 30.5814 34.9969 30.0504 34.7799C29.8645 34.7145 29.6657 34.6939 29.4703 34.7199C29.2263 34.7572 28.9879 34.8243 28.7604 34.9199C28.109 35.162 27.5112 35.5289 27.0004 35.9999C26.3104 36.6699 25.6304 37.3499 25.0004 37.9999C24.1104 38.8899 23.2204 39.7999 22.3104 40.6799C21.9304 41.0599 21.5603 41.4399 21.2203 41.8499C20.4521 42.7659 19.7313 43.7205 19.0604 44.7099C18.7566 45.1407 18.4826 45.5918 18.2404 46.0599C18.1232 46.2644 18.058 46.4944 18.0504 46.7299C18.0287 47.0639 18.0936 47.3978 18.239 47.6992C18.3845 48.0005 18.6054 48.2592 18.8804 48.4499L19.1604 48.6399C19.8904 49.0589 20.6652 49.3944 21.4703 49.6399C22.5703 49.9999 23.6804 50.2899 24.7804 50.6399L30.6504 52.3799C32.6504 52.9599 34.6503 53.5599 36.6003 54.1099C37.2294 54.2897 37.877 54.397 38.5304 54.4299V54.4299ZM38.1003 32.6299C37.9639 32.6198 37.8268 32.6198 37.6903 32.6299C37.5386 32.6304 37.3886 32.6617 37.2494 32.7218C37.1102 32.782 36.9846 32.8698 36.8804 32.9799C36.6104 33.2999 36.3503 33.6199 36.0903 33.9799C35.8477 34.3154 35.7118 34.7161 35.7003 35.1299C35.6784 35.5658 35.7121 36.0026 35.8004 36.4299C36.0157 37.5379 36.2928 38.6329 36.6304 39.7099C37.4704 42.5499 38.3604 45.3699 39.2604 48.1899C39.5504 49.0999 39.8404 50.01 40.1704 50.91C40.354 51.4536 40.6131 51.9686 40.9403 52.4399C41.2449 52.8955 41.7147 53.2146 42.2504 53.3299C42.5481 53.3797 42.8487 53.4098 43.1504 53.4199C43.5125 53.446 43.8707 53.3314 44.1504 53.0999C44.3473 52.9413 44.5281 52.7638 44.6903 52.5699C45.2203 51.9699 45.6903 51.3499 46.2203 50.7299L49.2804 46.91C50.8204 44.98 52.3604 43.0399 53.8704 41.0899C54.0082 40.9216 54.1352 40.7446 54.2504 40.5599C54.3628 40.395 54.4373 40.2073 54.4684 40.0102C54.4995 39.813 54.4865 39.6115 54.4304 39.4199C54.3291 39.1166 54.2521 38.8056 54.2003 38.4899C54.1571 38.265 54.0454 38.0589 53.8804 37.8999C53.659 37.6771 53.3932 37.5034 53.1003 37.3899C52.3503 37.0799 51.5903 36.7999 50.8303 36.5299L46.6604 34.9999C44.3275 34.1417 41.9508 33.4074 39.5404 32.7999C39.0712 32.6736 38.5861 32.6163 38.1003 32.6299V32.6299ZM11.6604 27.9399C11.2234 27.8904 10.7846 28.0163 10.4403 28.2899C10.2885 28.4217 10.1512 28.5692 10.0304 28.7299L9.56042 29.3899C9.45652 29.5244 9.37842 29.677 9.33032 29.8399C9.16736 30.4594 9.12324 31.1041 9.20032 31.7399C9.25678 32.2592 9.36403 32.7716 9.52039 33.2699C9.88039 34.5499 10.2704 35.8199 10.6604 37.0999C11.2504 38.9799 11.8303 40.8699 12.4703 42.7399C12.5672 43.0231 12.6808 43.3002 12.8104 43.5699C12.9016 43.7891 13.048 43.9809 13.2356 44.1264C13.4232 44.2719 13.6454 44.3662 13.8804 44.3999C14.2504 44.4599 14.6103 44.5199 14.9703 44.6099C15.3817 44.7039 15.8122 44.6654 16.2003 44.4999C16.8205 44.2513 17.3823 43.8768 17.8503 43.3999C18.5803 42.6599 19.3204 41.9199 20.0404 41.1699C21.0404 40.1699 22.0404 39.1699 23.0404 38.1699L26.2904 34.8299C26.4748 34.6363 26.6484 34.4326 26.8104 34.2199C27.1008 33.846 27.3209 33.4225 27.4603 32.9699C27.5503 32.7143 27.5503 32.4356 27.4603 32.1799C27.2947 31.6943 27.1545 31.2003 27.0404 30.6999C26.9902 30.5039 26.8992 30.3207 26.7734 30.1621C26.6477 30.0036 26.4899 29.8734 26.3104 29.7799C26.0294 29.6142 25.7309 29.48 25.4204 29.3799C24.8747 29.2009 24.3115 29.0802 23.7404 29.0199C23.0804 28.9399 22.4304 28.8799 21.7404 28.8199L20.8104 28.7399L19.1704 28.5899L18.0604 28.4999L16.7904 28.3999L15.6404 28.2999L13.8904 28.1599L12.7404 28.0599L11.6604 27.9399Z" fill="white"/>
</svg>
