<svg width="58" height="58" viewBox="0 0 58 58" fill="none" xmlns="http://www.w3.org/2000/svg">
<path d="M28.6294 57.5198C44.4035 57.5198 57.191 44.8226 57.191 29.1598C57.191 13.497 44.4035 0.799805 28.6294 0.799805C12.8553 0.799805 0.0678711 13.497 0.0678711 29.1598C0.0678711 44.8226 12.8553 57.5198 28.6294 57.5198Z" fill="#326452"/>
<path d="M22.7783 34.5199L22.2546 41.7399C22.5336 41.7442 22.8098 41.6841 23.0615 41.5644C23.3131 41.4446 23.5334 41.2685 23.7049 41.0499L27.1692 37.7599L34.36 42.9799C35.6692 43.7099 36.6059 43.3299 36.9584 41.7799L41.6716 19.8399C42.0946 17.8999 40.9666 17.1499 39.6574 17.6199L11.9318 28.1599C10.0384 28.8899 10.0686 29.9399 11.6095 30.4099L18.6592 32.5999L35.1254 22.3699C35.9009 21.8599 36.6059 22.1399 36.0218 22.6499L22.7783 34.5199Z" fill="white"/>
</svg>
