<svg width="58" height="58" viewBox="0 0 58 58" fill="none" xmlns="http://www.w3.org/2000/svg">
<path d="M29.439 57.5198C45.2131 57.5198 58.0006 44.8226 58.0006 29.1598C58.0006 13.497 45.2131 0.799805 29.439 0.799805C13.6649 0.799805 0.877441 13.497 0.877441 29.1598C0.877441 44.8226 13.6649 57.5198 29.439 57.5198Z" fill="#E50A0A"/>
<path d="M44.7267 24.9999C44.7281 24.1053 44.5516 23.2191 44.2074 22.3923C43.8632 21.5655 43.358 20.8142 42.7209 20.1816C42.0838 19.549 41.3272 19.0474 40.4945 18.7056C39.6618 18.3639 38.7694 18.1886 37.8683 18.1899H20.3346C18.5156 18.1899 16.7712 18.9074 15.485 20.1845C14.1988 21.4617 13.4762 23.1938 13.4762 24.9999V33.1C13.4642 34.0018 13.6328 34.897 13.9721 35.7337C14.3113 36.5703 14.8146 37.3317 15.4527 37.9736C16.0907 38.6156 16.8508 39.1252 17.6889 39.4731C18.527 39.8209 19.4262 40 20.3346 39.9999H37.8683C38.7694 40.0013 39.6618 39.826 40.4945 39.4843C41.3272 39.1425 42.0838 38.6409 42.7209 38.0083C43.358 37.3756 43.8632 36.6244 44.2074 35.7976C44.5516 34.9708 44.7281 34.0846 44.7267 33.1899V24.9999ZM34.414 29.66L26.5586 33.5199C26.2463 33.6899 25.1989 33.4599 25.1989 33.1199V25.1899C25.1989 24.8299 26.2564 24.61 26.5586 24.79L34.0917 28.85C34.4039 29.07 34.7362 29.53 34.414 29.7V29.66Z" fill="white"/>
</svg>
